<svg width="800" height="1200" viewBox="0 0 800 1200" fill="none" xmlns="http://www.w3.org/2000/svg">
<rect width="800" height="1200" rx="28" fill="#EDEAE2"/>
<rect x="58" y="58" width="684" height="1084" rx="20" fill="#F6F3EC" stroke="#D8D2C7" stroke-width="2"/>
<rect x="116" y="140" width="568" height="2" fill="#CFD7DF"/>
<rect x="116" y="205" width="472" height="2" fill="#CFD7DF"/>
<rect x="116" y="270" width="528" height="2" fill="#CFD7DF"/>
<rect x="116" y="335" width="440" height="2" fill="#CFD7DF"/>
<rect x="116" y="400" width="502" height="2" fill="#CFD7DF"/>
<rect x="116" y="465" width="460" height="2" fill="#CFD7DF"/>
<rect x="116" y="530" width="528" height="2" fill="#CFD7DF"/>
<rect x="116" y="595" width="416" height="2" fill="#CFD7DF"/>
<rect x="116" y="660" width="548" height="2" fill="#CFD7DF"/>
<rect x="116" y="725" width="494" height="2" fill="#CFD7DF"/>
<rect x="116" y="790" width="534" height="2" fill="#CFD7DF"/>
<rect x="116" y="855" width="442" height="2" fill="#CFD7DF"/>
<rect x="116" y="920" width="518" height="2" fill="#CFD7DF"/>
<rect x="116" y="985" width="478" height="2" fill="#CFD7DF"/>
<rect x="112" y="1038" width="186" height="40" rx="20" fill="#DDE4EC"/>
<rect x="66" y="58" width="24" height="1084" rx="12" fill="#B8C0CC"/>
</svg>
